<svg width="83" height="83" viewBox="0 0 83 83" fill="none" xmlns="http://www.w3.org/2000/svg">
<g id="My-Location 1" clip-path="url(#clip0_646_231)">
<path id="Vector" d="M39.6444 35.8818C41.5843 37.9704 43.3751 36.7519 44.0278 35.8818C44.55 35.1627 44.7741 34.1554 44.8206 33.7417V31.9869V30.7886V28.8626C44.8206 28.135 43.7479 27.2362 42.1158 26.9366C41.2765 26.7969 39.4485 26.9864 38.8516 28.8626V30.7886V31.9869V33.7417C38.8931 34.2553 39.1102 35.4024 39.6444 35.8818Z" stroke="#ED5457" stroke-width="0.996"/>
<path id="Vector_2" d="M45.1528 31.9871V33.7418C45.4792 34.1697 45.9921 33.2282 45.9456 32.4578C45.9081 31.8415 45.4015 31.8872 45.1528 31.9871Z" stroke="#ED5457" stroke-width="0.996"/>
<path id="Vector_3" d="M38.5198 33.7419V31.9872C38.2711 31.9444 37.7734 31.9786 37.7734 32.4579C37.7734 33.0571 38.0533 34.0413 38.5198 33.7419Z" stroke="#ED5457" stroke-width="0.996"/>
<path id="Vector_4" d="M33.2066 44.82C33.1491 43.2625 33.4569 39.8898 35.1488 38.8599C37.2639 37.5724 38.6882 37.7155 39.5082 35.856" stroke="#ED5457" stroke-width="0.996"/>
<path id="Vector_5" d="M50.4575 44.82C50.5149 43.2625 50.2071 39.8898 48.5153 38.8599C46.4001 37.5724 44.9758 37.7155 44.1558 35.856" stroke="#ED5457" stroke-width="0.996"/>
<path id="Vector_6" d="M33.1583 44.3535C35.4192 46.4945 38.4723 47.8079 41.8318 47.8079C45.1913 47.8079 48.2444 46.4945 50.5053 44.3535M29.8971 39.2921C29.4555 38.0066 29.2158 36.6272 29.2158 35.1919C29.2158 28.2243 34.8641 22.5759 41.8318 22.5759C48.7995 22.5759 54.4478 28.2243 54.4478 35.1919C54.4478 36.6272 54.2081 38.0066 53.7666 39.2921" stroke="#ED5457" stroke-width="1.66"/>
<path id="Vector_7" d="M21.082 35.3317C21.082 23.9728 30.2286 14.7739 41.5 14.7739C52.7714 14.7739 61.918 23.9728 61.918 35.3317C61.918 44.892 55.4371 52.925 46.6633 55.2268C46.1935 55.35 45.7769 55.6534 45.5249 56.091L41.6438 62.8276C41.58 62.9385 41.42 62.9385 41.3563 62.8276L37.4752 56.091C37.2232 55.6534 36.8065 55.35 36.3368 55.2268C27.563 52.925 21.082 44.892 21.082 35.3317Z" stroke="#A5988F" stroke-width="1.66"/>
<path id="Vector_8" d="M37.0181 68.3919C30.9567 67.7841 26.5601 65.9753 26.5601 63.8386C26.5601 61.3824 30.7101 59.3596 38.1801 59.0959M45.9821 68.3919C52.0434 67.7841 56.4401 65.9753 56.4401 63.8386C56.4401 61.3824 51.9581 59.3596 44.4881 59.0959" stroke="#A5988F" stroke-width="1.66" stroke-linecap="round"/>
<path id="Vector_9" d="M41.6659 69.388C42.1243 69.388 42.4959 69.0164 42.4959 68.558C42.4959 68.0996 42.1243 67.728 41.6659 67.728C41.2075 67.728 40.8359 68.0996 40.8359 68.558C40.8359 69.0164 41.2075 69.388 41.6659 69.388Z" fill="#A5988F"/>
</g>
<defs>
<clipPath id="clip0_646_231">
<rect width="83" height="83" fill="white"/>
</clipPath>
</defs>
</svg>
