<svg width="61" height="67" viewBox="0 0 61 67" fill="none" xmlns="http://www.w3.org/2000/svg">
<path d="M23.5418 11C20.3418 16.2 14.5418 17.8333 12.0418 18C12.2085 17.9839 12.4418 18.7614 12.0418 22C11.6419 25.2386 14.2085 27.0161 15.5417 27.5V31L14.5417 31.5C7.74175 33.5 5.37514 38.3333 5.04184 40.5V53C4.64184 57 7.20851 58.3333 8.54184 58.5H13.5418H24.0418C28.8418 58.9 31.0418 56.6667 31.5418 55.5H48.5418C48.5418 56.3 50.5418 57.1667 51.5418 57.5H55.5418V34.5C55.5418 32.1 52.8752 31.5 51.5418 31.5H42.5418H28.5418L25.5418 32L24.0418 31V28.5C27.2418 26.9 28.3752 24.5 28.5418 23.5V18C24.5418 16 23.5418 12.5 23.5418 11Z" fill="#F8F8F8"/>
<g filter="url(#filter0_d_1_4)">
<path d="M15.8957 31.78C9.90126 31.78 5.04175 36.6394 5.04175 42.634V52.516" stroke="#C53131" stroke-width="1.2"/>
<path d="M5.04175 50.2488V54.2988C5.04175 56.5357 6.85498 58.3488 9.09175 58.3488H27.2357C29.4726 58.3488 31.2857 56.5357 31.2857 54.2988C31.2857 52.0619 29.4726 50.2488 27.2357 50.2488H13.4657" stroke="#C53131" stroke-width="1.2"/>
<path d="M24.3197 31.78C20.9502 36.964 17.1918 33.9401 15.7338 31.78V27.892M24.3197 31.78C24.5358 31.7259 25.1297 31.7152 25.7777 32.104M24.3197 31.78V28.275M15.7338 27.892C13.6278 27.0026 11.8458 24.49 11.8458 23.194C11.8458 22.1572 11.8458 19.414 11.8458 18.172V17.9617M15.7338 27.892C17.1784 28.6994 20.1409 29.7605 22.5377 28.9771C23.1935 28.7801 23.7858 28.5416 24.3197 28.275M24.3197 28.275C27.8759 26.4998 28.8557 23.4756 28.8557 23.194C28.8557 22.9348 28.8557 19.738 28.8557 18.172V17.7956M11.8458 17.9617C10.9639 17.9196 10.2467 17.745 9.73976 17.524C9.19022 11.1128 12.4919 8.15366 15.7338 6.98839M11.8458 17.9617C14.6273 18.0943 19.0468 16.9074 23.6717 11.692C23.4822 13.3506 24.3489 16.5895 28.8557 17.7956M19.4598 6.346C18.4144 6.33016 17.0792 6.50476 15.7338 6.98839M15.7338 6.98839C13.6278 2.77079 17.8397 1 18.6497 1C19.2977 1 21.4037 1 22.3757 1C26.0045 1.9072 26.5877 5.59001 26.4257 7.318C31.9985 10.1692 31.7717 15.742 30.9617 18.172C30.1841 18.0927 29.4846 17.9639 28.8557 17.7956" stroke="#C53131" stroke-width="1.2"/>
<path d="M24.3197 31.78C20.9502 36.964 17.1918 33.9401 15.7338 31.78V27.892M24.3197 31.78C24.5358 31.7259 25.1297 31.7152 25.7777 32.104M24.3197 31.78V28.275M15.7338 27.892C13.6278 27.0026 11.8458 24.49 11.8458 23.194C11.8458 22.1572 11.8458 19.414 11.8458 18.172V17.9617M15.7338 27.892C17.1784 28.6994 20.1409 29.7605 22.5377 28.9771C23.1935 28.7801 23.7858 28.5416 24.3197 28.275M24.3197 28.275C27.8759 26.4998 28.8557 23.4756 28.8557 23.194C28.8557 22.9348 28.8557 19.738 28.8557 18.172V17.7956M11.8458 17.9617C10.9639 17.9196 10.2467 17.745 9.73976 17.524C9.19022 11.1128 12.4919 8.15366 15.7338 6.98839M11.8458 17.9617C14.6273 18.0943 19.0468 16.9074 23.6717 11.692C23.4822 13.3506 24.3489 16.5895 28.8557 17.7956M19.4598 6.346C18.4144 6.33016 17.0792 6.50476 15.7338 6.98839M15.7338 6.98839C13.6278 2.77079 17.8397 1 18.6497 1C19.2977 1 21.4037 1 22.3757 1C26.0045 1.9072 26.5877 5.59001 26.4257 7.318C31.9985 10.1692 31.7717 15.742 30.9617 18.172C30.1841 18.0927 29.4846 17.9639 28.8557 17.7956" stroke="black" stroke-opacity="0.2" stroke-width="1.2"/>
<path d="M26.4257 7.318C31.9985 10.1692 31.7717 15.742 30.9617 18.172C30.1841 18.0927 29.4846 17.9639 28.8557 17.7956C24.3489 16.5895 23.4822 13.3506 23.6717 11.692C19.0468 16.9074 14.6273 18.0943 11.8458 17.9617C10.9639 17.9196 10.2467 17.745 9.73976 17.524C9.19022 11.1128 12.4919 8.15366 15.7338 6.9884C13.6278 2.77079 17.8397 1 18.6497 1H22.3757C26.0045 1.9072 26.5877 5.59001 26.4257 7.318Z" fill="#C32E2E"/>
<path d="M11.8458 18.172V17.9617M11.8458 17.9617C10.9639 17.9196 10.2467 17.745 9.73976 17.524C9.19022 11.1128 12.4919 8.15366 15.7338 6.9884M11.8458 17.9617C14.6273 18.0943 19.0468 16.9074 23.6717 11.692C23.4822 13.3506 24.3489 16.5895 28.8557 17.7956M28.8557 18.172V17.7956M28.8557 17.7956C29.4846 17.9639 30.1841 18.0927 30.9617 18.172C31.7717 15.742 31.9985 10.1692 26.4257 7.318C26.5877 5.59001 26.0045 1.9072 22.3757 1C21.4037 1 19.2977 1 18.6497 1C17.8397 1 13.6278 2.77079 15.7338 6.9884M19.4598 6.346C18.4144 6.33016 17.0792 6.50476 15.7338 6.9884" stroke="#C53131" stroke-width="1.2"/>
<path d="M13.142 41.6626H14.762V51.0586H13.142V41.6626Z" fill="#C53131"/>
<path d="M51.8598 51.0581H55.5858V57.5381H51.8598C50.0703 57.5381 48.6198 56.0876 48.6198 54.2981C48.6198 52.5087 50.0703 51.0581 51.8598 51.0581Z" stroke="#C53131" stroke-width="1.2"/>
<path d="M49.4245 31.3734C49.476 30.6486 49.1679 28.865 47.416 28.865C44.5914 28.865 43.5539 33.5474 47.416 34.049" stroke="#3434DE" stroke-width="0.72"/>
<path d="M42.2965 31.3734C42.348 30.6486 42.0399 28.865 40.2881 28.865C37.4634 28.865 36.426 33.5474 40.2881 34.049" stroke="#3434DE" stroke-width="0.72"/>
<path d="M35.1686 31.3734C35.2201 30.6486 34.912 28.865 33.1601 28.865C30.3355 28.865 29.298 33.5474 33.1601 34.049" stroke="#3434DE" stroke-width="0.72"/>
<path d="M24.4817 50.3219V35.021C24.4817 33.0527 26.0774 31.457 28.0457 31.457H52.0217C53.99 31.457 55.5857 33.0527 55.5857 35.021V50.4817M30.9617 55.757H49.2677" stroke="#3434DE" stroke-width="1.2"/>
<path d="M55.5857 37.6123H24.4817V39.2323H55.5857V37.6123Z" fill="#3434DE"/>
<path d="M33.2297 42.1482H29.3417V46.0362H33.2297V42.1482Z" fill="#C2C2FF" stroke="#3434DE" stroke-width="0.72"/>
<path d="M41.9777 42.1482H38.0897V46.0362H41.9777V42.1482Z" fill="#C2C2FF" stroke="#3434DE" stroke-width="0.72"/>
<path d="M50.7254 42.1482H46.8374V46.0362H50.7254V42.1482Z" fill="#C2C2FF" stroke="#3434DE" stroke-width="0.72"/>
<path d="M33.2297 48.9524H29.3417V50.8426L30.7997 52.1924H33.2297V48.9524Z" fill="#C2C2FF" stroke="#3434DE" stroke-width="0.72"/>
<path d="M41.9777 48.6279H38.0897V52.5159H41.9777V48.6279Z" fill="#C2C2FF" stroke="#3434DE" stroke-width="0.72"/>
<path d="M50.7254 48.6279H46.8374V52.5159H48.7814L50.7254 51.0583V48.6279Z" fill="#C2C2FF" stroke="#3434DE" stroke-width="0.72"/>
</g>
<defs>
<filter id="filter0_d_1_4" x="0.441748" y="0.4" width="59.744" height="66.5488" filterUnits="userSpaceOnUse" color-interpolation-filters="sRGB">
<feFlood flood-opacity="0" result="BackgroundImageFix"/>
<feColorMatrix in="SourceAlpha" type="matrix" values="0 0 0 0 0 0 0 0 0 0 0 0 0 0 0 0 0 0 127 0" result="hardAlpha"/>
<feOffset dy="4"/>
<feGaussianBlur stdDeviation="2"/>
<feComposite in2="hardAlpha" operator="out"/>
<feColorMatrix type="matrix" values="0 0 0 0 1 0 0 0 0 1 0 0 0 0 1 0 0 0 0.05 0"/>
<feBlend mode="normal" in2="BackgroundImageFix" result="effect1_dropShadow_1_4"/>
<feBlend mode="normal" in="SourceGraphic" in2="effect1_dropShadow_1_4" result="shape"/>
</filter>
</defs>
</svg>
