<svg width="51" height="58" viewBox="0 0 51 58" fill="none" xmlns="http://www.w3.org/2000/svg">
<g id="Group 119" filter="url(#filter0_dd_495_262)">
<path id="Ellipse 1052" d="M4.44412 30.7709C4.44412 20.9147 14.2347 11.1947 18.9206 7.10712C20.3388 5.86998 22.3885 5.86998 23.8067 7.10712C28.4926 11.1947 38.2832 20.9147 38.2832 30.7709C38.2832 39.0162 31.8761 47.4971 21.3637 47.4971C10.8512 47.4971 4.44412 39.0162 4.44412 30.7709Z" fill="#E03333"/>
<path id="Ellipse 1053 (Stroke)" fill-rule="evenodd" clip-rule="evenodd" d="M21.9228 41.2397C21.7553 40.3777 22.3165 39.5428 23.1764 39.3748C26.8707 38.6534 29.3821 35.6964 30.1278 32.3124C30.3168 31.4549 31.1634 30.9133 32.0188 31.1027C32.8742 31.2921 33.4145 32.1409 33.2255 32.9984C32.2532 37.4106 28.9138 41.4945 23.783 42.4965C22.9231 42.6644 22.0903 42.1017 21.9228 41.2397Z" fill="#FF7F7F"/>
</g>
<defs>
<filter id="filter0_dd_495_262" x="0.444336" y="0.179199" width="49.8389" height="57.3179" filterUnits="userSpaceOnUse" color-interpolation-filters="sRGB">
<feFlood flood-opacity="0" result="BackgroundImageFix"/>
<feColorMatrix in="SourceAlpha" type="matrix" values="0 0 0 0 0 0 0 0 0 0 0 0 0 0 0 0 0 0 127 0" result="hardAlpha"/>
<feOffset dx="4" dy="2"/>
<feGaussianBlur stdDeviation="4"/>
<feComposite in2="hardAlpha" operator="out"/>
<feColorMatrix type="matrix" values="0 0 0 0 1 0 0 0 0 1 0 0 0 0 1 0 0 0 1 0"/>
<feBlend mode="normal" in2="BackgroundImageFix" result="effect1_dropShadow_495_262"/>
<feColorMatrix in="SourceAlpha" type="matrix" values="0 0 0 0 0 0 0 0 0 0 0 0 0 0 0 0 0 0 127 0" result="hardAlpha"/>
<feOffset dx="4" dy="2"/>
<feGaussianBlur stdDeviation="4"/>
<feComposite in2="hardAlpha" operator="out"/>
<feColorMatrix type="matrix" values="0 0 0 0 0.372549 0 0 0 0 0.615686 0 0 0 0 0.905882 0 0 0 0.48 0"/>
<feBlend mode="normal" in2="effect1_dropShadow_495_262" result="effect2_dropShadow_495_262"/>
<feBlend mode="normal" in="SourceGraphic" in2="effect2_dropShadow_495_262" result="shape"/>
</filter>
</defs>
</svg>
