<svg width="79" height="95" viewBox="0 0 79 95" fill="none" xmlns="http://www.w3.org/2000/svg">
<g id="Vector" filter="url(#filter0_dd_555_261)">
<path d="M38.8294 6.00817C31.9736 6.17783 25.4279 8.92716 20.476 13.717C15.5242 18.5068 12.5234 24.9915 12.0623 31.8993C11.6011 38.8072 13.7129 45.6397 17.9834 51.057C22.2538 56.4743 28.3749 60.0855 35.1462 61.1824V68.7611H32.5122C31.3584 68.7611 30.2518 69.2238 29.4359 70.0475C28.6201 70.8712 28.1617 71.9884 28.1617 73.1532C28.1617 74.3181 28.6201 75.4352 29.4359 76.2589C30.2518 77.0826 31.3584 77.5453 32.5122 77.5453H35.1462V80.6079C35.1462 81.7727 35.6045 82.8899 36.4204 83.7136C37.2363 84.5373 38.3429 85 39.4967 85C40.6505 85 41.7571 84.5373 42.5729 83.7136C43.3888 82.8899 43.8472 81.7727 43.8472 80.6079V77.5453H46.4812C47.635 77.5453 48.7415 77.0826 49.5574 76.2589C50.3733 75.4352 50.8316 74.3181 50.8316 73.1532C50.8316 71.9884 50.3733 70.8712 49.5574 70.0475C48.7415 69.2238 47.635 68.7611 46.4812 68.7611H43.8472V61.1824C50.297 60.122 56.1646 56.7845 60.4047 51.7644C64.6448 46.7444 66.982 40.3677 67 33.7703C67.0005 30.067 66.2672 26.4009 64.8432 22.9879C63.4192 19.575 61.3334 16.4841 58.7084 13.8972C56.0835 11.3103 52.9725 9.27968 49.5585 7.92484C46.1445 6.57 42.4966 5.91832 38.8294 6.00817ZM58.681 33.7703C58.6801 37.6008 57.5542 41.3449 55.4457 44.5294C53.3372 47.7138 50.3407 50.1955 46.8351 51.6608C43.3296 53.126 39.4724 53.5089 35.7513 52.7611C32.0302 52.0133 28.6123 50.1683 25.9298 47.4595C23.2473 44.7507 21.4206 41.2996 20.6807 37.5428C19.9408 33.7859 20.321 29.8919 21.7731 26.3531C23.2253 22.8143 25.6842 19.7897 28.8389 17.6618C31.9937 15.5338 35.7026 14.398 39.4967 14.398C44.584 14.4027 49.4616 16.4453 53.0584 20.0775C56.6553 23.7096 58.6775 28.6343 58.681 33.7703Z" fill="#E700C2"/>
</g>
<defs>
<filter id="filter0_dd_555_261" x="0" y="0" width="79" height="95" filterUnits="userSpaceOnUse" color-interpolation-filters="sRGB">
<feFlood flood-opacity="0" result="BackgroundImageFix"/>
<feColorMatrix in="SourceAlpha" type="matrix" values="0 0 0 0 0 0 0 0 0 0 0 0 0 0 0 0 0 0 127 0" result="hardAlpha"/>
<feOffset dx="4" dy="2"/>
<feGaussianBlur stdDeviation="4"/>
<feComposite in2="hardAlpha" operator="out"/>
<feColorMatrix type="matrix" values="0 0 0 0 0.372549 0 0 0 0 0.615686 0 0 0 0 0.905882 0 0 0 0.48 0"/>
<feBlend mode="normal" in2="BackgroundImageFix" result="effect1_dropShadow_555_261"/>
<feColorMatrix in="SourceAlpha" type="matrix" values="0 0 0 0 0 0 0 0 0 0 0 0 0 0 0 0 0 0 127 0" result="hardAlpha"/>
<feOffset dx="-4" dy="2"/>
<feGaussianBlur stdDeviation="4"/>
<feComposite in2="hardAlpha" operator="out"/>
<feColorMatrix type="matrix" values="0 0 0 0 1 0 0 0 0 1 0 0 0 0 1 0 0 0 1 0"/>
<feBlend mode="normal" in2="effect1_dropShadow_555_261" result="effect2_dropShadow_555_261"/>
<feBlend mode="normal" in="SourceGraphic" in2="effect2_dropShadow_555_261" result="shape"/>
</filter>
</defs>
</svg>
