<svg width="69" height="65" viewBox="0 0 69 65" fill="none" xmlns="http://www.w3.org/2000/svg">
<g clip-path="url(#clip0_706_246)">
<path d="M19.1599 27.072C19.3705 28.1984 20.6662 32.0954 25.5533 32.3411C30.4405 32.5872 32.4321 28.7553 33.0639 27.424" stroke="#71637C" stroke-width="1.76"/>
<path d="M35.88 15.8079C35.88 21.154 31.5462 25.4879 26.2 25.4879C20.8539 25.4879 16.52 21.154 16.52 15.8079C16.52 10.4618 20.8539 6.12793 26.2 6.12793C31.5462 6.12793 35.88 10.4618 35.88 15.8079Z" stroke="#71637C" stroke-width="1.76"/>
<path d="M20.2161 27.7759C13.8008 27.7759 8.6001 32.9767 8.6001 39.3919V45.7279" stroke="#71637C" stroke-width="1.76"/>
<path d="M32.3601 27.9521L33.5935 27.9324C39.0104 27.8465 43.4481 32.2141 43.4481 37.6321" stroke="#71637C" stroke-width="1.76"/>
<path d="M8.6001 49.248V53.648C8.6001 56.0782 10.57 58.048 13.0001 58.048H15.9921M15.9921 58.048H27.9601M15.9921 58.048V45.728" stroke="#71637C" stroke-width="1.76"/>
<path d="M43.4479 56.288C43.4479 57.2598 42.6598 58.048 41.6879 58.048H36.0559M36.0559 58.048H32.5359M36.0559 58.048V45.376" stroke="#71637C" stroke-width="1.76"/>
<path d="M22.5359 24.6079L20.5681 29.5359M29.5124 24.6079L31.4801 29.5359" stroke="#71637C" stroke-width="1.76"/>
<path d="M61.3999 46.2662V47.3187C61.3985 49.7855 60.5998 52.1858 59.1225 54.1619C57.6455 56.1377 55.5694 57.583 53.2036 58.2825C50.8378 58.9819 48.3094 58.8981 45.9953 58.0431C43.6813 57.1881 41.7055 55.608 40.363 53.5385C39.0201 51.4691 38.3823 49.021 38.5446 46.5594C38.7072 44.0976 39.6608 41.7546 41.2634 39.8792C42.8664 38.0041 45.0326 36.6971 47.4389 36.1533C49.8452 35.6098 52.3627 35.8583 54.6162 36.8625" stroke="#2FBBB2" stroke-width="1.76" stroke-linecap="round" stroke-linejoin="round"/>
<path d="M61.4001 38.1663L49.9601 49.6179L46.5281 46.1859" stroke="#2FBBB2" stroke-width="1.76" stroke-linecap="round" stroke-linejoin="round"/>
</g>
<defs>
<clipPath id="clip0_706_246">
<rect width="69" height="65" fill="white"/>
</clipPath>
</defs>
</svg>
