<svg width="72" height="72" viewBox="0 0 72 72" fill="none" xmlns="http://www.w3.org/2000/svg">
<g id="Height (1) 1" clip-path="url(#clip0_593_787)">
<path id="Vector" d="M29.9521 26.928C31.9403 26.928 33.5521 25.3163 33.5521 23.328C33.5521 21.3398 31.9403 19.728 29.9521 19.728C27.9638 19.728 26.3521 21.3398 26.3521 23.328C26.3521 25.3163 27.9638 26.928 29.9521 26.928Z" stroke="#712C6A" stroke-width="1.44"/>
<path id="Vector_2" fill-rule="evenodd" clip-rule="evenodd" d="M20.448 34.5601C20.448 30.9814 23.3492 28.0801 26.928 28.0801H33.264C36.8427 28.0801 39.744 30.9814 39.744 34.5601V34.8481V37.1521V37.5841V46.6561C39.744 48.1672 38.5191 49.3921 37.008 49.3921C36.5391 49.3921 36.0976 49.274 35.712 49.0664V61.9984C36.906 62.5845 37.728 63.8122 37.728 65.2321V65.3761V66.8161H36.288H31.968H30.528H29.088H24.768H23.328V65.3761V64.9441C23.328 63.9012 23.7714 62.9621 24.48 62.3046V49.0664C24.0943 49.274 23.6529 49.3921 23.184 49.3921C21.6729 49.3921 20.448 48.1672 20.448 46.6561V37.7281V37.1521V34.8481V34.5601ZM31.104 63.278C31.7454 62.2876 32.8602 61.6321 34.128 61.6321C34.1761 61.6321 34.2242 61.6329 34.272 61.635V46.6561V46.5556C32.584 47.3047 30.837 47.4472 29.2936 47.3009C28.0031 47.1785 26.8327 46.8525 25.92 46.4899V46.6561V61.4872C26.2399 61.3939 26.5781 61.3441 26.928 61.3441C27.7384 61.3441 28.4863 61.6119 29.088 62.0638V50.2561C29.088 49.9885 29.1764 49.7463 29.3098 49.5574C29.4365 49.378 29.6418 49.1954 29.9215 49.1257C30.2452 49.0445 30.6132 49.1378 30.8563 49.4419C31.0579 49.6942 31.104 50.0049 31.104 50.2561V63.278ZM34.272 44.9488V44.9281V37.5841V34.8481H35.712V36.4134C35.9934 36.3154 36.3012 36.2377 36.6261 36.1965C37.1508 36.1303 37.728 36.1593 38.304 36.3558V34.8481V34.5601C38.304 31.7766 36.0475 29.5201 33.264 29.5201H26.928C24.1445 29.5201 21.888 31.7766 21.888 34.5601V34.8481V36.4488C22.145 36.3465 22.4254 36.2656 22.7236 36.2207C23.2766 36.1369 23.8779 36.1795 24.48 36.4191V34.8481H25.92V37.7281V44.9206C26.742 45.3117 27.9989 45.7316 29.4296 45.8672C30.9781 46.0141 32.6894 45.8249 34.272 44.9488ZM35.712 44.9281V46.6561C35.712 47.3718 36.2923 47.9521 37.008 47.9521C37.7237 47.9521 38.304 47.3718 38.304 46.6561V37.9447C37.8109 37.6281 37.2928 37.5636 36.8067 37.6253C36.3845 37.6785 35.9988 37.8271 35.712 37.9812V44.9281ZM24.48 38.0622V44.9281V45.3601V46.6561C24.48 47.3718 23.8998 47.9521 23.184 47.9521C22.4682 47.9521 21.888 47.3718 21.888 46.6561V38.0722C22.1536 37.8876 22.5246 37.7071 22.9388 37.6443C23.3934 37.5757 23.9251 37.6428 24.48 38.0622ZM29.6608 50.2037C29.6608 50.2037 29.6614 50.2057 29.662 50.2106C29.6608 50.2063 29.6608 50.2037 29.6608 50.2037ZM29.088 65.3761V64.9441C29.088 63.7512 28.1209 62.7841 26.928 62.7841C25.7351 62.7841 24.768 63.7512 24.768 64.9441V65.3761H29.088ZM36.288 65.2321V65.3761H31.968V65.2321C31.968 64.0392 32.9351 63.0721 34.128 63.0721C35.3209 63.0721 36.288 64.0392 36.288 65.2321Z" fill="#712C6A"/>
<path id="Vector_3" fill-rule="evenodd" clip-rule="evenodd" d="M46.08 5.76H53.568C53.8863 5.76 54.144 6.01787 54.144 6.336V6.624C54.144 6.94212 53.8863 7.2 53.568 7.2H53.28H52.128H45.792H45.504V6.336C45.504 6.01787 45.7618 5.76 46.08 5.76ZM44.64 7.2V6.336C44.64 5.54071 45.2849 4.896 46.08 4.896H53.568C54.3632 4.896 55.008 5.54071 55.008 6.336V6.624C55.008 7.41928 54.3632 8.064 53.568 8.064H53.28V8.352V65.664H59.616V67.104H12.384V65.664H44.64V61.9128V61.3368V60.7608V57.8287V57.2527V56.6767V53.8954V53.3194V52.7434V49.9625V49.3865V48.8105V46.0293V45.4533V44.8773V41.7937V41.2177V40.6417V37.8605V37.2845V36.7085V33.9275V33.3515V32.7755V29.9943V29.4183V28.8423V26.0613V25.4853V24.9093V22.1282V21.5522V20.9762V18.1951V17.6191V17.0431V14.262V13.686V13.11V10.368H20.016C19.6184 10.368 19.296 10.0456 19.296 9.648C19.296 9.25035 19.6184 8.928 20.016 8.928H44.64V8.8744V8.352V8.064V7.2ZM45.792 65.664H52.128V8.352H45.792V8.8744H49.549V10.0264H45.792V10.368V13.11H48.1614V14.262H45.792V17.0431H49.549V18.1951H45.792V20.9762H48.1614V22.1282H45.792V24.9093H49.549V26.0613H45.792V28.8423H48.1614V29.9943H45.792V32.7755H49.549V33.9275H45.792V36.7085H48.1614V37.8605H45.792V40.6417H49.549V41.7937H45.792V44.8773H48.1614V46.0293H45.792V48.8105H49.549V49.9625H45.792V52.7434H48.1614V53.8954H45.792V56.6767H49.549V57.8287H45.792V60.7608H48.1614V61.9128H45.792V65.664Z" fill="#005E04"/>
</g>
<defs>
<clipPath id="clip0_593_787">
<rect width="72" height="72" fill="white"/>
</clipPath>
</defs>
</svg>
