<svg width="101" height="86" viewBox="0 0 101 86" fill="none" xmlns="http://www.w3.org/2000/svg">
<mask id="mask0_488_478" style="mask-type:luminance" maskUnits="userSpaceOnUse" x="0" y="0" width="101" height="87">
<path d="M51.5147 8.32642L50.539 9.29348L49.5632 8.32642C44.1804 2.99566 36.8822 0.0012207 29.2727 0.0012207C21.6631 0.0012207 14.3649 2.99566 8.98203 8.32642C3.60337 13.6613 0.582031 20.8945 0.582031 28.4363C0.582031 35.9781 3.60337 43.2113 8.98203 48.5462L9.95778 49.5132L44.021 83.3697C44.8703 84.2139 45.8793 84.8836 46.9903 85.3406C48.1012 85.7976 49.2922 86.0328 50.4951 86.0328C51.6979 86.0328 52.8889 85.7976 53.9998 85.3406C55.1107 84.8836 56.1198 84.2139 56.9691 83.3697L91.0713 49.5229L92.0471 48.5558C97.4257 43.2209 100.447 35.9877 100.447 28.446C100.447 20.9042 97.4257 13.671 92.0471 8.3361C86.6688 3.01646 79.3813 0.0280156 71.7829 0.0262027C64.1845 0.0243898 56.8956 3.00935 51.5147 8.32642Z" fill="white"/>
</mask>
<g mask="url(#mask0_488_478)">
<path d="M104 0H-3V14.3317H104V0Z" fill="#BBCDE0"/>
<path d="M104 14.3318H-3V28.6635H104V14.3318Z" fill="#CAD7E5"/>
<path d="M104 28.6633H-3V42.9951H104V28.6633Z" fill="#BED0E4"/>
<path d="M104 42.9951H-3V57.3268H104V42.9951Z" fill="#CAD7E5"/>
<path d="M104 57.3367H-3V71.6684H104V57.3367Z" fill="#BBCDE0"/>
<path d="M104 71.6682H-3V85.9999H104V71.6682Z" fill="#CAD7E5"/>
</g>
</svg>
