<svg width="95" height="87" viewBox="0 0 95 87" fill="none" xmlns="http://www.w3.org/2000/svg">
<g id="Vector" filter="url(#filter0_dd_555_259)">
<path d="M81.6645 7.35411C81.2366 6.92324 80.7274 6.58166 80.1664 6.34921C79.6054 6.11675 79.0038 5.99807 78.3965 6.00002H62.066C61.4547 6.00064 60.8495 6.12165 60.2849 6.35614C59.7204 6.59062 59.2075 6.934 58.7757 7.36666C58.3439 7.79932 58.0015 8.3128 57.7681 8.87776C57.5348 9.44273 57.415 10.0481 57.4156 10.6594C57.4193 11.8906 57.9108 13.0702 58.7824 13.9399C59.6539 14.8097 60.8346 15.2987 62.066 15.2999H62.0895L67.1443 15.2717L58.7322 23.683C54.9667 20.9577 50.6097 19.162 46.0173 18.4428C41.4248 17.7236 36.7274 18.1013 32.3089 19.5449C27.8904 20.9886 23.8763 23.4573 20.5947 26.7492C17.3131 30.0411 14.8572 34.0627 13.4276 38.4854C11.9981 42.9081 11.6356 47.6063 12.3697 52.1959C13.1038 56.7855 14.9137 61.1363 17.6515 64.8926C20.3892 68.6488 23.9771 71.704 28.1218 73.8083C32.2665 75.9126 36.8504 77.0063 41.4988 77C42.1242 77 42.7496 77 43.3797 76.9389C48.6349 76.5971 53.7024 74.8527 58.0544 71.8874C62.4064 68.9221 65.8837 64.8444 68.1241 60.0788C70.3645 55.3133 71.2861 50.0342 70.7929 44.7915C70.2997 39.5489 68.4097 34.5343 65.3199 30.2701L73.732 21.8588L73.7085 26.9225C73.706 27.5341 73.8241 28.1403 74.0561 28.7062C74.288 29.2722 74.6293 29.7869 75.0603 30.221C75.4913 30.655 76.0037 30.9998 76.5681 31.2358C77.1324 31.4717 77.7378 31.5941 78.3495 31.5959C78.96 31.5965 79.5646 31.4768 80.1288 31.2437C80.693 31.0105 81.2057 30.6684 81.6376 30.237C82.0695 29.8056 82.4121 29.2933 82.6458 28.7294C82.8796 28.1655 82.9999 27.5611 82.9999 26.9507V10.6171C83.0035 10.012 82.8873 9.41223 82.6581 8.85223C82.4289 8.29224 82.0913 7.7831 81.6645 7.35411ZM62.0096 47.5534C62.0096 51.618 60.8041 55.5913 58.5458 58.9709C56.2874 62.3505 53.0774 64.9846 49.3218 66.5401C45.5663 68.0955 41.4337 68.5025 37.4468 67.7095C33.4599 66.9166 29.7977 64.9593 26.9233 62.0852C24.0489 59.211 22.0914 55.5492 21.2984 51.5627C20.5053 47.5762 20.9124 43.4441 22.468 39.6889C24.0236 35.9337 26.6579 32.724 30.0379 30.4659C33.4178 28.2077 37.3915 27.0024 41.4565 27.0024C46.9068 27.0061 52.1329 29.1724 55.9873 33.0255C59.8416 36.8786 62.0093 42.1037 62.0143 47.5534H62.0096Z" fill="#006FE7"/>
</g>
<defs>
<filter id="filter0_dd_555_259" x="0" y="0" width="95" height="87" filterUnits="userSpaceOnUse" color-interpolation-filters="sRGB">
<feFlood flood-opacity="0" result="BackgroundImageFix"/>
<feColorMatrix in="SourceAlpha" type="matrix" values="0 0 0 0 0 0 0 0 0 0 0 0 0 0 0 0 0 0 127 0" result="hardAlpha"/>
<feOffset dx="4" dy="2"/>
<feGaussianBlur stdDeviation="4"/>
<feComposite in2="hardAlpha" operator="out"/>
<feColorMatrix type="matrix" values="0 0 0 0 0.372549 0 0 0 0 0.615686 0 0 0 0 0.905882 0 0 0 0.48 0"/>
<feBlend mode="normal" in2="BackgroundImageFix" result="effect1_dropShadow_555_259"/>
<feColorMatrix in="SourceAlpha" type="matrix" values="0 0 0 0 0 0 0 0 0 0 0 0 0 0 0 0 0 0 127 0" result="hardAlpha"/>
<feOffset dx="-4" dy="2"/>
<feGaussianBlur stdDeviation="4"/>
<feComposite in2="hardAlpha" operator="out"/>
<feColorMatrix type="matrix" values="0 0 0 0 1 0 0 0 0 1 0 0 0 0 1 0 0 0 1 0"/>
<feBlend mode="normal" in2="effect1_dropShadow_555_259" result="effect2_dropShadow_555_259"/>
<feBlend mode="normal" in="SourceGraphic" in2="effect2_dropShadow_555_259" result="shape"/>
</filter>
</defs>
</svg>
