<svg width="95" height="95" viewBox="0 0 95 95" fill="none" xmlns="http://www.w3.org/2000/svg">
<g filter="url(#filter0_i_554_250)">
<path d="M93.2131 1.81183C92.6406 1.23532 91.9592 0.778273 91.2086 0.467247C90.4579 0.156221 89.6529 -0.002589 88.8404 3.19189e-05H66.9897C66.1718 0.000857644 65.362 0.162767 64.6066 0.47652C63.8512 0.790272 63.165 1.24972 62.5872 1.82863C62.0094 2.40755 61.5513 3.09459 61.2391 3.85052C60.9268 4.60646 60.7665 5.4165 60.7673 6.23439C60.7723 7.88181 61.4299 9.46015 62.5961 10.6239C63.7623 11.7876 65.3421 12.4419 66.9897 12.4436H67.0212L73.7846 12.4058L62.529 23.6604C57.4907 20.0138 51.6608 17.6112 45.5161 16.6489C39.3713 15.6865 33.086 16.1918 27.1739 18.1235C21.2618 20.0552 15.8908 23.3583 11.5 27.763C7.10908 32.1676 3.82295 37.5487 1.91021 43.4664C-0.00253583 49.3841 -0.487603 55.6704 0.494655 61.8114C1.47691 67.9525 3.89862 73.7739 7.5618 78.7999C11.225 83.8259 16.0257 87.9138 21.5714 90.7294C27.1172 93.545 33.2506 95.0084 39.4703 95C40.3071 95 41.1438 95 41.9869 94.9182C49.0186 94.4609 55.799 92.1269 61.6221 88.1592C67.4452 84.1916 72.0979 78.7354 75.0956 72.359C78.0933 65.9825 79.3264 58.919 78.6665 51.9042C78.0066 44.8893 75.4778 38.1797 71.3435 32.474L82.5992 21.2195L82.5677 27.9948C82.5644 28.8133 82.7224 29.6243 83.0328 30.3816C83.3431 31.1389 83.7997 31.8276 84.3764 32.4084C84.9532 32.9891 85.6387 33.4505 86.3939 33.7662C87.149 34.0818 87.959 34.2456 88.7775 34.2481C89.5944 34.2489 90.4033 34.0887 91.1582 33.7767C91.9131 33.4648 92.5991 33.0071 93.177 32.4298C93.7549 31.8526 94.2133 31.1671 94.5261 30.4126C94.8389 29.6581 94.9999 28.8493 94.9999 28.0326V6.17777C95.0046 5.36819 94.8492 4.56566 94.5426 3.81637C94.2359 3.06709 93.7841 2.38584 93.2131 1.81183ZM66.9142 55.5996C66.9142 61.0382 65.3013 66.3546 62.2795 70.8766C59.2577 75.3986 54.9627 78.9231 49.9377 81.0043C44.9126 83.0855 39.3832 83.6301 34.0486 82.5691C28.714 81.5081 23.8138 78.8892 19.9678 75.0435C16.1218 71.1979 13.5026 66.2982 12.4415 60.9642C11.3804 55.6301 11.925 50.1012 14.0065 45.0766C16.0879 40.0521 19.6127 35.7575 24.1352 32.736C28.6576 29.7145 33.9746 28.1018 39.4137 28.1018C46.7063 28.1068 53.6989 31.0053 58.8562 36.1609C64.0135 41.3164 66.9138 48.3077 66.9205 55.5996H66.9142Z" fill="#CAD7E5"/>
</g>
<defs>
<filter id="filter0_i_554_250" x="0" y="0" width="95" height="99" filterUnits="userSpaceOnUse" color-interpolation-filters="sRGB">
<feFlood flood-opacity="0" result="BackgroundImageFix"/>
<feBlend mode="normal" in="SourceGraphic" in2="BackgroundImageFix" result="shape"/>
<feColorMatrix in="SourceAlpha" type="matrix" values="0 0 0 0 0 0 0 0 0 0 0 0 0 0 0 0 0 0 127 0" result="hardAlpha"/>
<feOffset dy="4"/>
<feGaussianBlur stdDeviation="3"/>
<feComposite in2="hardAlpha" operator="arithmetic" k2="-1" k3="1"/>
<feColorMatrix type="matrix" values="0 0 0 0 0 0 0 0 0 0 0 0 0 0 0 0 0 0 0.05 0"/>
<feBlend mode="normal" in2="shape" result="effect1_innerShadow_554_250"/>
</filter>
</defs>
</svg>
