<svg width="85" height="86" viewBox="0 0 85 86" fill="none" xmlns="http://www.w3.org/2000/svg">
<g filter="url(#filter0_i_591_722)">
<path d="M59.4617 25.2323V25.2151C59.8917 22.7211 60.1324 20.1411 60.1324 17.4579C60.1324 7.01752 51.9968 0 39.9053 0C27.8137 0 19.6953 7.01752 19.6953 17.4579C19.6953 20.1411 19.936 22.7383 20.3489 25.2151V25.2323C20.3489 25.3011 20.3832 25.3528 20.3832 25.4215C22.6881 38.7 30.5485 48.5383 39.9053 48.5383C49.2621 48.5383 57.1224 38.7343 59.4272 25.4732C59.4272 25.3872 59.4617 25.3183 59.4617 25.2323ZM39.9053 45.0983C32.5781 45.0983 26.3345 37.2896 24.0641 26.4707C26.0421 25.4387 27.0741 22.9447 27.9341 20.8292C28.6564 19.0575 29.4649 17.0279 30.3937 17.0279C31.8728 17.0279 32.6813 17.6128 33.8164 18.4383C35.1924 19.436 36.8953 20.6743 39.9053 20.6743C42.9153 20.6743 44.6353 19.436 46.0113 18.4383C47.1292 17.6128 47.9549 17.0279 49.434 17.0279C50.3456 17.0279 51.2056 19.1436 51.8936 20.8292C52.7364 22.9447 53.7685 25.4387 55.7636 26.4707C53.476 37.2896 47.2496 45.0983 39.9053 45.0983Z" fill="#CAD7E5"/>
<path d="M65.5849 63.3305V68.6797H64.1573C63.2113 68.6797 62.4373 69.4537 62.4373 70.3997V84.2801C62.4373 85.226 63.2113 86.0001 64.1573 86.0001H83.2836C84.2296 86.0001 85.0036 85.226 85.0036 84.2801V70.3997C85.0036 69.4537 84.2296 68.6797 83.2836 68.6797H81.856V63.3305C81.856 58.8412 78.2096 55.1948 73.7204 55.1948C69.2313 55.1948 65.5849 58.8412 65.5849 63.3305ZM78.416 63.3305V68.6797H69.0249V63.3305C69.0249 60.7505 71.1232 58.6348 73.7204 58.6348C76.3004 58.6348 78.416 60.7505 78.416 63.3305Z" fill="#CAD7E5"/>
<path d="M39.9052 51.9782C36.2759 51.9782 32.8016 50.7742 29.6884 48.6071C28.1748 50.6882 26.1108 52.2706 23.72 53.2166C33.7648 58.9614 46.0455 58.9614 56.0904 53.2338C53.6995 52.2878 51.6184 50.671 50.1391 48.5898C47.0259 50.7742 43.5516 51.9782 39.9052 51.9782Z" fill="#CAD7E5"/>
<path d="M1.96219 82.577H58.9973V70.3994C58.9973 68.2666 60.3045 66.4262 62.1449 65.6522V63.3302C62.1449 60.7673 62.9877 58.3766 64.4324 56.4502C63.5209 56.003 62.5921 55.6073 61.6461 55.2634L60.1669 54.7302C54.0265 58.8926 46.9745 60.9909 39.9053 60.9909C32.8361 60.9909 25.7841 58.8926 19.6437 54.7302L18.1818 55.2634C7.44899 59.1505 0.242188 69.4362 0.242188 80.857C0.242188 81.803 1.0161 82.577 1.96219 82.577Z" fill="#CAD7E5"/>
</g>
<defs>
<filter id="filter0_i_591_722" x="0.242188" y="0" width="84.7615" height="86" filterUnits="userSpaceOnUse" color-interpolation-filters="sRGB">
<feFlood flood-opacity="0" result="BackgroundImageFix"/>
<feBlend mode="normal" in="SourceGraphic" in2="BackgroundImageFix" result="shape"/>
<feColorMatrix in="SourceAlpha" type="matrix" values="0 0 0 0 0 0 0 0 0 0 0 0 0 0 0 0 0 0 127 0" result="hardAlpha"/>
<feOffset/>
<feGaussianBlur stdDeviation="3"/>
<feComposite in2="hardAlpha" operator="arithmetic" k2="-1" k3="1"/>
<feColorMatrix type="matrix" values="0 0 0 0 0 0 0 0 0 0 0 0 0 0 0 0 0 0 0.05 0"/>
<feBlend mode="normal" in2="shape" result="effect1_innerShadow_591_722"/>
</filter>
</defs>
</svg>
