<svg width="105" height="102" viewBox="0 0 105 102" fill="none" xmlns="http://www.w3.org/2000/svg">
<g id="Group 148" filter="url(#filter0_dd_591_723)">
<path id="Vector" d="M67.2185 31.2323V31.2151C67.6485 28.7211 67.8892 26.1411 67.8892 23.4579C67.8892 13.0175 59.7538 6 47.6625 6C35.5711 6 27.4529 13.0175 27.4529 23.4579C27.4529 26.1411 27.6936 28.7383 28.1065 31.2151V31.2323C28.1065 31.3011 28.1408 31.3528 28.1408 31.4215C30.4456 44.7 38.3059 54.5383 47.6625 54.5383C57.0191 54.5383 64.8793 44.7343 67.1841 31.4732C67.1841 31.3872 67.2185 31.3183 67.2185 31.2323ZM47.6625 51.0983C40.3354 51.0983 34.0919 43.2896 31.8216 32.4707C33.7996 31.4387 34.8315 28.9447 35.6915 26.8292C36.4138 25.0575 37.2223 23.0279 38.151 23.0279C39.6302 23.0279 40.4386 23.6128 41.5737 24.4383C42.9497 25.436 44.6526 26.6743 47.6625 26.6743C50.6724 26.6743 52.3924 25.436 53.7684 24.4383C54.8863 23.6128 55.7119 23.0279 57.1911 23.0279C58.1026 23.0279 58.9626 25.1436 59.6506 26.8292C60.4934 28.9447 61.5254 31.4387 63.5205 32.4707C61.233 43.2896 55.0067 51.0983 47.6625 51.0983Z" fill="#C24219"/>
<path id="Vector_2" d="M73.3414 69.3305V74.6797H71.9138C70.9679 74.6797 70.1938 75.4537 70.1938 76.3997V90.2801C70.1938 91.226 70.9679 92.0001 71.9138 92.0001H91.0398C91.9858 92.0001 92.7598 91.226 92.7598 90.2801V76.3997C92.7598 75.4537 91.9858 74.6797 91.0398 74.6797H89.6122V69.3305C89.6122 64.8412 85.9659 61.1948 81.4768 61.1948C76.9877 61.1948 73.3414 64.8412 73.3414 69.3305ZM86.1723 69.3305V74.6797H76.7814V69.3305C76.7814 66.7505 78.8797 64.6348 81.4768 64.6348C84.0568 64.6348 86.1723 66.7505 86.1723 69.3305Z" fill="#C24219"/>
<path id="Vector_3" d="M47.6622 57.9782C44.033 57.9782 40.5588 56.7742 37.4456 54.6071C35.9321 56.6882 33.8681 58.2706 31.4773 59.2166C41.5219 64.9614 53.8024 64.9614 63.8471 59.2338C61.4563 58.2878 59.3752 56.671 57.896 54.5898C54.7828 56.7742 51.3086 57.9782 47.6622 57.9782Z" fill="#C24219"/>
<path id="Vector_4" d="M9.71997 88.577H66.754V76.3994C66.754 74.2666 68.0612 72.4262 69.9016 71.6522V69.3302C69.9016 66.7673 70.7444 64.3766 72.1891 62.4502C71.2776 62.003 70.3488 61.6073 69.4027 61.2634L67.9236 60.7302C61.7833 64.8926 54.7315 66.9909 47.6624 66.9909C40.5933 66.9909 33.5415 64.8926 27.4012 60.7302L25.9392 61.2634C15.2067 65.1505 8 75.4362 8 86.857C8 87.803 8.7739 88.577 9.71997 88.577Z" fill="#C24219"/>
</g>
<defs>
<filter id="filter0_dd_591_723" x="0" y="0" width="104.76" height="102" filterUnits="userSpaceOnUse" color-interpolation-filters="sRGB">
<feFlood flood-opacity="0" result="BackgroundImageFix"/>
<feColorMatrix in="SourceAlpha" type="matrix" values="0 0 0 0 0 0 0 0 0 0 0 0 0 0 0 0 0 0 127 0" result="hardAlpha"/>
<feOffset dx="4" dy="2"/>
<feGaussianBlur stdDeviation="4"/>
<feComposite in2="hardAlpha" operator="out"/>
<feColorMatrix type="matrix" values="0 0 0 0 0.372549 0 0 0 0 0.615686 0 0 0 0 0.905882 0 0 0 0.48 0"/>
<feBlend mode="normal" in2="BackgroundImageFix" result="effect1_dropShadow_591_723"/>
<feColorMatrix in="SourceAlpha" type="matrix" values="0 0 0 0 0 0 0 0 0 0 0 0 0 0 0 0 0 0 127 0" result="hardAlpha"/>
<feOffset dx="-4" dy="2"/>
<feGaussianBlur stdDeviation="2"/>
<feComposite in2="hardAlpha" operator="out"/>
<feColorMatrix type="matrix" values="0 0 0 0 1 0 0 0 0 1 0 0 0 0 1 0 0 0 1 0"/>
<feBlend mode="normal" in2="effect1_dropShadow_591_723" result="effect2_dropShadow_591_723"/>
<feBlend mode="normal" in="SourceGraphic" in2="effect2_dropShadow_591_723" result="shape"/>
</filter>
</defs>
</svg>
