<svg width="79" height="79" viewBox="0 0 79 79" fill="none" xmlns="http://www.w3.org/2000/svg">
<g clip-path="url(#clip0_646_255)">
<path d="M30.9555 30.6351C31.0702 32.0836 31.6669 35.3188 33.137 36.671C38.4748 42.5619 43.4022 39.1254 45.1987 36.671C46.6359 34.6429 47.2517 31.8021 47.38 30.6351M30.9555 30.6351V25.6858M30.9555 30.6351C29.6724 31.4801 28.9024 28.7037 28.9024 27.0137C28.9024 25.6617 30.2712 25.5651 30.9555 25.6858M47.38 30.6351V25.6858M47.38 30.6351C48.2784 31.8422 49.69 29.1866 49.5617 27.0137C49.459 25.2754 48.0645 25.4041 47.38 25.6858M30.9555 25.6858V24.6817M47.38 25.6858V23.9958C45.8917 19.8154 42.7946 18.0876 41.4323 17.7462M47.38 25.6858C48.6532 22.5286 50.2414 19.7147 47.38 16.7374C45.1987 14.4676 42.5471 15.0561 41.2215 15.9808M41.4323 17.7462C40.9343 18.755 39.0803 20.8231 35.6504 21.0248C32.2206 21.2266 31.0914 23.5468 30.9555 24.6817M41.4323 17.7462C41.4323 17.0578 41.3558 16.4737 41.2215 15.9808M41.2215 15.9808C40.4701 13.224 37.9057 13.3214 36.7577 13.9632L30.9555 15.9808C26.1779 18.755 29.3906 23.3367 30.9555 24.6817" stroke="#604900" stroke-width="1.58"/>
<path d="M64.129 65.415C64.2993 60.7827 63.3883 50.7522 58.3806 47.6892C52.1213 43.8606 47.9059 44.2859 45.479 38.7556" stroke="#604900" stroke-width="1.58"/>
<path d="M32.5733 38.7556C30.1463 44.2859 25.9309 43.8606 19.6715 47.6892C14.6641 50.7522 13.7528 60.7827 13.9231 65.415H24.1743M24.1743 65.415V54.0361M24.1743 65.415H29.2303M64.9383 65.415H53.8783M53.8783 65.415V54.0361M53.8783 65.415H34.4443" stroke="#604900" stroke-width="1.58"/>
<path d="M43.3838 54.7458H49.4892V60.1276C49.4892 61.8135 48.1225 63.1802 46.4364 63.1802C44.7505 63.1802 43.3838 61.8135 43.3838 60.1276V54.7458Z" stroke="#EE8C1D" stroke-width="1.58"/>
</g>
<defs>
<clipPath id="clip0_646_255">
<rect width="79" height="79" fill="white"/>
</clipPath>
</defs>
</svg>
