<svg width="55" height="55" viewBox="0 0 55 55" fill="none" xmlns="http://www.w3.org/2000/svg">
<path d="M0.980392 10.6034V5.64626C0.980392 3.09103 3.05181 1.01961 5.60705 1.01961H49.3537C51.909 1.01961 53.9804 3.09103 53.9804 5.64626V38.0329M0.980392 17.2129V49.269C0.980392 51.8243 3.05181 53.8957 5.60705 53.8957H49.3537C51.909 53.8957 53.9804 51.8243 53.9804 49.269V43.6509" stroke="#1E344C" stroke-width="1.59002"/>
<path d="M16.8803 8.62035L15.5553 6.47226M20.0273 7.62893L19.3647 5.3156M23.8367 7.13321L23.5052 4.65465M27.4802 6.96798V4.48941M31.124 7.13321L31.621 4.65465M38.2461 8.62035L39.4054 6.47226M34.9334 7.62893L35.7616 5.3156" stroke="#1E344C" stroke-width="1.59002"/>
<path d="M27.1141 16.3541L27.3229 16.6832L27.7096 16.7314C28.6098 16.8434 29.3041 17.6102 29.3041 18.5349C29.3041 19.5369 28.4895 20.3525 27.4806 20.3525C26.4713 20.3525 25.6567 19.5369 25.6567 18.5349C25.6567 17.928 25.9544 17.3898 26.4168 17.0581L26.8081 16.7775L26.7568 16.2988L26.6914 15.6876L27.1141 16.3541Z" stroke="#1E344C" stroke-width="1.59002"/>
<path d="M29.591 45.4683C28.6584 44.0143 29.2023 41.7783 29.591 40.8417C30.8676 39.0793 33.088 34.6618 31.7559 31.0927C30.4234 27.5235 32.0801 26.1355 32.9215 25.6398C38.2501 22.5003 43.9855 29.8874 44.7446 31.0927C45.577 32.4146 45.6236 34.8013 45.2443 35.5541C44.7446 36.5455 41.5806 40.8417 40.7481 42.1636C39.9153 43.4855 37.917 45.9641 36.0855 47.4512C34.2536 48.9383 30.7565 47.286 29.591 45.4683Z" stroke="#4F9AE2" stroke-width="1.59002"/>
<path d="M38.1253 21.415C37.5966 22.7134 36.4772 23.1325 35.8103 22.8651C35.1434 22.5977 34.6319 21.5247 35.1603 20.2263C35.6891 18.9279 36.8084 18.5088 37.4753 18.7762C38.1422 19.0436 38.6541 20.1165 38.1253 21.415Z" fill="#4F9AE2" stroke="#4F9AE2" stroke-width="1.59002"/>
<mask id="mask0_1_139" style="mask-type:luminance" maskUnits="userSpaceOnUse" x="38" y="20" width="5" height="5">
<path d="M39.6405 24.7499C40.4782 25.0858 41.5294 24.4444 41.9883 23.3174C42.4473 22.1904 42.1402 21.0044 41.3024 20.6685C40.4647 20.3327 39.4135 20.974 38.9546 22.101C38.4957 23.2281 38.8028 24.414 39.6405 24.7499Z" fill="#4F9AE2"/>
</mask>
<g mask="url(#mask0_1_139)">
<path d="M40.4548 22.7025C40.3454 22.9708 40.1881 23.1205 40.0959 23.1767C40.0037 23.2332 40.0843 23.1476 40.2638 23.2197L39.0176 26.2802C40.0348 26.688 41.0599 26.4501 41.8173 25.9877C42.5748 25.5257 43.1726 24.7911 43.5223 23.9325L40.4548 22.7025ZM40.2638 23.2197C40.4432 23.2914 40.4416 23.4087 40.4145 23.3043C40.3877 23.2005 40.3791 22.9844 40.4885 22.716L37.421 21.486C37.0714 22.3449 36.9871 23.2851 37.2082 24.1401C37.4296 24.9943 38.0003 25.8724 39.0176 26.2802L40.2638 23.2197ZM40.4885 22.716C40.5975 22.4477 40.7549 22.298 40.8471 22.2418C40.9396 22.1853 40.859 22.2709 40.6795 22.1988L41.9257 19.1382C40.9085 18.7304 39.8834 18.9685 39.1259 19.4308C38.3685 19.8928 37.7707 20.6274 37.421 21.486L40.4885 22.716ZM40.6795 22.1988C40.4997 22.1271 40.5017 22.0098 40.5288 22.1142C40.5556 22.218 40.5642 22.4341 40.4548 22.7025L43.5223 23.9325C43.8719 23.0736 43.9562 22.1334 43.7348 21.2785C43.5137 20.4242 42.9429 19.5461 41.9257 19.1382L40.6795 22.1988Z" fill="#4F9AE2"/>
</g>
<mask id="mask1_1_139" style="mask-type:luminance" maskUnits="userSpaceOnUse" x="41" y="23" width="4" height="4">
<path d="M41.9189 26.2813C42.5258 26.6933 43.4765 26.3623 44.0422 25.5418C44.6079 24.7213 44.5744 23.7222 43.9675 23.3101C43.3605 22.8981 42.4099 23.2291 41.8442 24.0496C41.2785 24.8701 41.3119 25.8692 41.9189 26.2813Z" fill="#4F9AE2"/>
</mask>
<g mask="url(#mask1_1_139)">
<path d="M42.6752 24.6135C42.5714 24.7635 42.4683 24.8138 42.4511 24.8197C42.4462 24.8214 42.4835 24.8068 42.5595 24.8128C42.6408 24.8191 42.7505 24.8485 42.857 24.9205L40.9808 27.6413C41.8222 28.2127 42.7905 28.1889 43.541 27.9275C44.2922 27.6658 44.9472 27.14 45.4092 26.4698L42.6752 24.6135ZM42.857 24.9205C42.9634 24.9929 43.0304 25.0838 43.0661 25.1568C43.0989 25.2246 43.0989 25.2646 43.0989 25.2593C43.0982 25.2414 43.1078 25.1277 43.2112 24.9774L40.4772 23.1214C40.0149 23.7916 39.7584 24.5877 39.7848 25.3772C39.8113 26.1661 40.1398 27.0703 40.9808 27.6413L42.857 24.9205ZM43.2112 24.9774C43.315 24.8273 43.4181 24.7774 43.4353 24.7715C43.4402 24.7695 43.4029 24.784 43.3269 24.7781C43.2456 24.7718 43.1359 24.7424 43.0295 24.6704L44.9056 21.9496C44.0642 21.3785 43.0959 21.4023 42.3454 21.6637C41.5942 21.9251 40.9392 22.4509 40.4772 23.1214L43.2112 24.9774ZM43.0295 24.6704C42.923 24.598 42.856 24.5074 42.8206 24.4341C42.7876 24.3663 42.7875 24.3263 42.7875 24.3316C42.7882 24.3495 42.7786 24.4631 42.6752 24.6135L45.4092 26.4698C45.8715 25.7996 46.128 25.0031 46.1016 24.2136C46.0751 23.4248 45.747 22.5206 44.9056 21.9496L43.0295 24.6704Z" fill="#4F9AE2"/>
</g>
<mask id="mask2_1_139" style="mask-type:luminance" maskUnits="userSpaceOnUse" x="43" y="25" width="4" height="4">
<path d="M44.1678 28.2932C44.7425 28.7569 45.6786 28.5591 46.2586 27.8514C46.8385 27.1437 46.8427 26.194 46.2679 25.7302C45.6932 25.2665 44.7571 25.4643 44.1771 26.172C43.5972 26.8797 43.593 27.8294 44.1678 28.2932Z" fill="#4F9AE2"/>
</mask>
<g mask="url(#mask2_1_139)">
<path d="M44.9727 26.8139C44.9063 26.8949 44.8521 26.9051 44.8683 26.9015C44.8792 26.8992 44.9205 26.8926 44.9863 26.9058C45.0557 26.9197 45.139 26.9537 45.215 27.0152L43.1204 29.5714C44.6492 30.8048 46.6069 30.0334 47.5445 28.889L44.9727 26.8139ZM45.215 27.0152C45.2913 27.0767 45.3419 27.1507 45.37 27.2151C45.3961 27.2763 45.3981 27.3179 45.3981 27.3288C45.3977 27.3453 45.3967 27.2908 45.4632 27.2095L42.8911 25.1345C41.9535 26.2789 41.592 28.3381 43.1204 29.5714L45.215 27.0152ZM45.4632 27.2095C45.5296 27.1285 45.5838 27.1186 45.5673 27.1219C45.5567 27.1242 45.5154 27.1309 45.4496 27.118C45.3802 27.1041 45.2969 27.0701 45.2206 27.0083L47.3151 24.4524C45.7867 23.219 43.829 23.9904 42.8911 25.1345L45.4632 27.2095ZM45.2206 27.0083C45.1442 26.9468 45.094 26.8728 45.0659 26.8083C45.0395 26.7472 45.0378 26.7059 45.0378 26.6946C45.0378 26.6781 45.0392 26.7326 44.9727 26.8139L47.5445 28.889C48.4824 27.7449 48.8439 25.6857 47.3151 24.4524L45.2206 27.0083Z" fill="#4F9AE2"/>
</g>
<path d="M45.5619 30.2691C45.9527 30.7661 46.7683 30.7828 47.3836 30.3064C47.9989 29.8301 48.1809 29.041 47.7902 28.544C47.3994 28.0471 46.5838 28.0303 45.9685 28.5067C45.3532 28.9831 45.1712 29.7721 45.5619 30.2691Z" fill="#3B668F"/>
<path d="M25.008 45.4683C25.9407 44.0143 25.3967 41.7783 25.008 40.8417C23.7314 39.0793 21.5113 34.6618 22.8434 31.0927C24.1756 27.5235 22.5189 26.1355 21.6775 25.6398C16.3489 22.5003 10.6138 29.8874 9.85456 31.0927C9.02193 32.4146 8.97559 34.8013 9.35498 35.5541C9.85456 36.5455 13.0185 40.8417 13.8511 42.1636C14.6837 43.4855 16.682 45.9641 18.5137 47.4512C20.3454 48.9383 23.8425 47.286 25.008 45.4683Z" stroke="#4F9AE2" stroke-width="1.59002"/>
<path d="M16.4739 21.415C17.0026 22.7134 18.1218 23.1325 18.7888 22.8651C19.4557 22.5977 19.9673 21.5247 19.4385 20.2263C18.9099 18.9279 17.7907 18.5088 17.1238 18.7762C16.4568 19.0436 15.9451 20.1165 16.4739 21.415Z" fill="#4F9AE2" stroke="#4F9AE2" stroke-width="1.59002"/>
<mask id="mask3_1_139" style="mask-type:luminance" maskUnits="userSpaceOnUse" x="12" y="20" width="4" height="5">
<path d="M14.9585 24.7499C14.1207 25.0858 13.0695 24.4444 12.6106 23.3174C12.1517 22.1904 12.4588 21.0044 13.2965 20.6685C14.1342 20.3327 15.1854 20.974 15.6443 22.101C16.1033 23.2281 15.7962 24.414 14.9585 24.7499Z" fill="#4F9AE2"/>
</mask>
<g mask="url(#mask3_1_139)">
<path d="M14.1444 22.7025C14.2537 22.9708 14.411 23.1205 14.5032 23.1767C14.5956 23.2332 14.5149 23.1476 14.3354 23.2197L15.5817 26.2802C14.5645 26.688 13.5394 26.4501 12.782 25.9877C12.0244 25.5257 11.4267 24.7911 11.077 23.9325L14.1444 22.7025ZM14.3354 23.2197C14.1559 23.2914 14.1577 23.4087 14.1847 23.3043C14.2116 23.2005 14.22 22.9844 14.1107 22.716L17.1782 21.486C17.5278 22.3449 17.6122 23.2851 17.3908 24.1401C17.1696 24.9943 16.599 25.8724 15.5817 26.2802L14.3354 23.2197ZM14.1107 22.716C14.0015 22.4477 13.8441 22.298 13.752 22.2418C13.6596 22.1853 13.7403 22.2709 13.9198 22.1988L12.6734 19.1382C13.6907 18.7304 14.7158 18.9685 15.4732 19.4308C16.2307 19.8928 16.8285 20.6274 17.1782 21.486L14.1107 22.716ZM13.9198 22.1988C14.0993 22.1271 14.0975 22.0098 14.0705 22.1142C14.0436 22.218 14.0351 22.4341 14.1444 22.7025L11.077 23.9325C10.7274 23.0736 10.643 22.1334 10.8643 21.2785C11.0856 20.4242 11.6562 19.5461 12.6734 19.1382L13.9198 22.1988Z" fill="#4F9AE2"/>
</g>
<mask id="mask4_1_139" style="mask-type:luminance" maskUnits="userSpaceOnUse" x="10" y="23" width="4" height="4">
<path d="M12.6795 26.2815C12.0771 26.6904 11.1302 26.3568 10.5645 25.5364C9.99882 24.7159 10.0285 23.7193 10.6309 23.3104C11.2332 22.9014 12.1801 23.235 12.7458 24.0555C13.3115 24.876 13.2818 25.8726 12.6795 26.2815Z" fill="#4F9AE2"/>
</mask>
<g mask="url(#mask4_1_139)">
<path d="M11.9314 24.6083C12.0366 24.7609 12.1413 24.8118 12.1587 24.8181C12.1637 24.8198 12.1252 24.8049 12.0475 24.8105C11.9639 24.8168 11.8511 24.8465 11.7413 24.9212L13.6172 27.6417C12.7736 28.2144 11.8041 28.185 11.0574 27.9219C10.3093 27.6582 9.65775 27.1324 9.19723 26.4645L11.9314 24.6083ZM11.7413 24.9212C11.6316 24.9956 11.5627 25.0891 11.5266 25.1641C11.4931 25.2342 11.4931 25.2751 11.4933 25.2699C11.4938 25.2514 11.4837 25.136 11.3785 24.9837L14.1128 23.1274C14.5732 23.7953 14.8312 24.5884 14.8077 25.3759C14.7843 26.1618 14.4608 27.069 13.6172 27.6417L11.7413 24.9212ZM11.3785 24.9837C11.2733 24.831 11.1686 24.7798 11.1513 24.7738C11.1463 24.7718 11.1848 24.7867 11.2625 24.7811C11.3461 24.7751 11.4589 24.7451 11.5687 24.6707L9.69275 21.9499C10.5364 21.3772 11.5058 21.4069 12.2525 21.67C13.0007 21.9334 13.6522 22.4595 14.1128 23.1274L11.3785 24.9837ZM11.5687 24.6707C11.6784 24.596 11.7473 24.5025 11.7834 24.4275C11.8169 24.3578 11.8168 24.3168 11.8167 24.3221C11.8162 24.3402 11.8262 24.4556 11.9314 24.6083L9.19723 26.4645C8.73671 25.7966 8.47881 25.0035 8.50228 24.216C8.52571 23.4301 8.84911 22.5226 9.69275 21.9499L11.5687 24.6707Z" fill="#4F9AE2"/>
</g>
<mask id="mask5_1_139" style="mask-type:luminance" maskUnits="userSpaceOnUse" x="7" y="25" width="4" height="4">
<path d="M10.4816 28.2523C9.87889 28.7386 8.92018 28.5591 8.34023 27.8513C7.76029 27.1436 7.77873 26.1757 8.38141 25.6894C8.9841 25.2031 9.94281 25.3826 10.5228 26.0904C11.1027 26.7981 11.0843 27.766 10.4816 28.2523Z" fill="#4F9AE2"/>
</mask>
<g mask="url(#mask5_1_139)">
<path d="M9.62637 26.8137C9.67975 26.8788 9.72271 26.8848 9.70757 26.8818C9.69795 26.8801 9.66474 26.8755 9.61249 26.8871C9.55737 26.8993 9.49289 26.9271 9.43443 26.974L11.5291 29.5302C10.0234 30.745 8.04217 30.0943 7.05441 28.8888L9.62637 26.8137ZM9.43443 26.974C9.37594 27.0212 9.33549 27.0784 9.31226 27.1293C9.29025 27.1779 9.28777 27.2109 9.2876 27.2205C9.28731 27.2361 9.29028 27.1931 9.23691 27.128L11.8089 25.0526C12.7967 26.2582 13.0347 28.3154 11.5291 29.5302L9.43443 26.974ZM9.23691 27.128C9.18354 27.0629 9.14061 27.0569 9.15574 27.0596C9.16533 27.0616 9.19854 27.0659 9.25079 27.0543C9.30591 27.0424 9.37042 27.0146 9.42888 26.9674L7.33426 24.4112C8.83994 23.1963 10.8211 23.8474 11.8089 25.0526L9.23691 27.128ZM9.42888 26.9674C9.48734 26.9201 9.52779 26.8633 9.55102 26.8121C9.57307 26.7638 9.57551 26.7304 9.57568 26.7208C9.57597 26.7056 9.573 26.7486 9.62637 26.8137L7.05441 28.8888C6.06662 27.6835 5.82858 25.626 7.33426 24.4112L9.42888 26.9674Z" fill="#4F9AE2"/>
</g>
<path d="M9.06896 30.2268C8.71662 30.7642 7.91539 30.8673 7.27937 30.4571C6.64335 30.0469 6.41338 29.2787 6.76572 28.7413C7.11806 28.2039 7.91929 28.1008 8.55531 28.511C9.19133 28.9212 9.4213 29.6894 9.06896 30.2268Z" fill="#3B668F"/>
</svg>
